<svg id="Vieira_Arts_copiar" data-name="Vieira Arts copiar" xmlns="http://www.w3.org/2000/svg" width="1080" height="467" viewBox="0 0 1080 467">
  <defs>
    <style>
      .cls-1, .cls-3 {
        fill: #1577e4;
      }

      .cls-1, .cls-2, .cls-3 {
        fill-rule: evenodd;
      }

      .cls-2 {
        fill: #08203b;
      }

      .cls-3 {
        stroke: #1577e4;
        stroke-linejoin: round;
        stroke-width: 2px;
      }
    </style>
  </defs>
  <g id="Ieira">
    <path id="V_copiar" data-name="V copiar" class="cls-1" d="M499.205,356.458h33.374V240.607c0-28.556-33.374-26.655-33.374-26.655V356.458Zm34.33-141.183c1.205-1.811,5.4-10.316,5.4-16.187a17.64,17.64,0,0,0-6.141-13.744,21.722,21.722,0,0,0-15.218-5.47C455.937,180.63,548.721,192.436,533.535,215.275ZM644.178,330.038q-15.758,0-26.966-6.405a37.226,37.226,0,0,1-16.287-18.68l84.951-16.609c16.969-3.317,27.218-7.846,14.637-42.5a65.279,65.279,0,0,0-26.032-24.818,76.83,76.83,0,0,0-36.444-8.673q-21.094,0-37.779,9.34a67.479,67.479,0,0,0-26.166,26.019q-9.48,16.682-9.478,37.495,0,21.084,9.745,37.761a67.26,67.26,0,0,0,27.634,26.02q17.885,9.343,41.384,9.34,18.422,0,33.107-5.871a58.2,58.2,0,0,0,24.029-17.346s-16.782-17.424-32.334-10.117a55.745,55.745,0,0,1-24,5.046h0Zm-6.141-91q14.949,0,25.5,8.006a37.956,37.956,0,0,1,14.017,21.082l-10.7,2.054L596.92,283.6v-0.266q0-20.279,11.347-32.291t29.77-12.009h0Zm213.052-4.27a19.04,19.04,0,0,0,0-8.418c-4.853-19.633-30.805-23.468-30.805-23.468s-0.967,26.375-.967,46.954V356.458h33.374V287.34q0-21.348,10.947-32.691c4.682-4.852,10.419-8.733,17.569-9.886,22.339-3.605,28.977-32.586,28.977-32.586-24.209,0-49.483,7.646-59.095,22.59h0Zm183.691-8.036a27.147,27.147,0,0,0,0,4.567,56.039,56.039,0,0,0-20.16-14.144,66.071,66.071,0,0,0-25.5-4.8q-20.826,0-37.245,9.073a64.793,64.793,0,0,0-25.632,25.486q-9.212,16.412-9.211,38.295t9.211,38.428a64.511,64.511,0,0,0,25.632,25.619q16.419,9.076,37.245,9.074a69.068,69.068,0,0,0,26.835-5.071,51.64,51.64,0,0,0,20.42-15.211l0.9,21.312s30.87,0.944,30.89-22.5c0.04-42.038.11-137.073,0.11-137.073S1037.21,196.813,1034.78,226.731Zm-41.917,103.04q-18.423,0-30.3-12.276t-11.881-32.29q0-20.016,11.881-32.291t30.3-12.276q18.415,0,30.437,12.276t12.01,32.291q0,20.015-12.01,32.29t-30.437,12.276h0ZM549.035,170.347m193.519,187.66h33.374V242.156c0-28.556-33.374-26.655-33.374-26.655V358.007Zm34.33-141.183c1.205-1.811,5.4-10.316,5.4-16.187a17.637,17.637,0,0,0-6.141-13.743,21.722,21.722,0,0,0-15.218-5.471C699.286,182.179,792.07,193.985,776.884,216.824Z"/>
    <path id="Forma_18" data-name="Forma 18" class="cls-2" d="M820,203s29.691,11.133,30,33c0.092-.058,4.267-11.5-3-19C839.529,209.292,838.181,206.962,820,203Z"/>
    <path id="Forma_15" data-name="Forma 15" class="cls-2" d="M499,214s26.521,6.036,33,25C532.255,234.489,531.8,213.857,499,214Z"/>
    <path id="Forma_16" data-name="Forma 16" class="cls-2" d="M499,185s35.787,14.448,37,25C536.855,209.037,536.353,189.37,499,185Z"/>
    <path id="Forma_15_copiar" data-name="Forma 15 copiar" class="cls-2" d="M743,216s26.862,6.036,33.423,25C776.256,237.93,777.071,216.757,743,216Z"/>
    <path id="Forma_16_copiar" data-name="Forma 16 copiar" class="cls-2" d="M739,185c32.874,3.95,40.29,15.727,39,25C777.012,202.221,748.75,189.88,739,185Z"/>
    <path id="Forma_17" data-name="Forma 17" class="cls-2" d="M664,327s19.454-2.845,35,9C703.967,335.61,682.179,315.558,664,327Z"/>
    <path id="Forma_19" data-name="Forma 19" class="cls-2" d="M910,212s-2.6,29.029-32,33c0.07,0.05,24.762-8.1,29-32C908,212.653,910,212,910,212Z"/>
    <path id="Forma_20" data-name="Forma 20" class="cls-2" d="M1068,334s4.87,24.936-31,25c-0.11-2,0-2,0-2S1062.48,357.252,1068,334Z"/>
    <path id="Forma_20_copiar" data-name="Forma 20 copiar" class="cls-2" d="M1035,225s-2.61-25.936,32.94-26c0.11,2,0,2,0,2S1040.47,201.748,1035,225Z"/>
  </g>
  <g id="V">
    <path id="Forma_5_copiar" data-name="Forma 5 copiar" class="cls-1" d="M310.383,347.236s19.534-31.151,42.15-59.429c23.73-29.672,50.6-56.539,50.6-56.539L310.383,450.376,215.01,231.268s27.868,27.358,52.233,56.985C290.54,316.581,310.383,347.236,310.383,347.236ZM612.14,8.254S562.125,4.793,506.162,48.826C462.672,84.669,451.6,120.359,403.709,229.61,402.743,231.815,589.934,13.221,612.14,8.254ZM4.313,8.345S54.455,4.885,110.56,48.893c43.6,35.823,55.92,71.448,103.872,180.717C215.4,231.815,26.575,13.309,4.313,8.345ZM426.863,230.19"/>
    <path id="Forma_13" data-name="Forma 13" class="cls-2" d="M611,8c-5.668,1.445-87.63,17.481-205.194,218.781C412.171,222.6,574.62,33.622,611,8Z"/>
    <path id="Forma_13_copiar" data-name="Forma 13 copiar" class="cls-2" d="M5,8S96.631,28.481,214,229C202.86,220.41,26.643,15.875,5,8Z"/>
    <path id="Forma_14" data-name="Forma 14" class="cls-2" d="M402,233c-15.207,11.962-72.346,76.44-91,113-23.576-36.867-68.167-91.2-95-113,1.65,2.844,95,135,95,135S397.869,243.037,402,233Z"/>
  </g>
  <path id="codes" class="cls-3" d="M535.552,436.84a17.82,17.82,0,0,1-6.358,5.951,17.431,17.431,0,0,1-8.646,2.187,17.9,17.9,0,1,1,0-35.807,17.781,17.781,0,0,1,8.8,2.238,17.2,17.2,0,0,1,6.205,5.9h5.6a22.381,22.381,0,0,0-20.6-13.021A22.787,22.787,0,1,0,532.907,446.3a22.722,22.722,0,0,0,8.24-9.46h-5.6Zm128.723-25.889a22.84,22.84,0,1,0,6.663,16.123A21.961,21.961,0,0,0,664.275,410.951Zm-3.458,28.788a17.927,17.927,0,1,1,5.239-12.665A17.254,17.254,0,0,1,660.817,439.739Zm137.726-54.931H793.66v28.177a22.947,22.947,0,0,0-7.63-6.357,22.443,22.443,0,0,0-10.274-2.34,22.787,22.787,0,1,0,0,45.573,22.358,22.358,0,0,0,10.325-2.391,22.024,22.024,0,0,0,7.579-6.307v8.7h4.883V384.808Zm-10.122,54.931a17.927,17.927,0,1,1,5.239-12.665A17.254,17.254,0,0,1,788.421,439.739Zm131.266-29.348a19.077,19.077,0,0,0-14.038-6.1H903.36a22.787,22.787,0,1,0,0,45.573,22.257,22.257,0,0,0,12.512-3.611,22.888,22.888,0,0,0,8.088-9.41h-5.6a18.108,18.108,0,0,1-6.342,5.976A17.99,17.99,0,0,1,885.457,428.7h40.486c0.034-.305.077-0.593,0.127-0.865a5.292,5.292,0,0,0,.077-0.966,22.539,22.539,0,0,0-6.46-16.48h0Zm-33.925,13.428a17.639,17.639,0,0,1,17.6-14.648h2.594a14.392,14.392,0,0,1,10.4,4.3,13.949,13.949,0,0,1,4.4,10.35H885.762Zm162.778,3.637a17.856,17.856,0,0,0-11.07-3.637h-13.02q-5.85,0-8.18-.814a5.482,5.482,0,0,1-3.92-5.7,6.821,6.821,0,0,1,3.92-6.511,17.6,17.6,0,0,1,8.18-1.627h13.02a32.681,32.681,0,0,1,7.58,1.017,51.1,51.1,0,0,1,5.45,1.628v-4.934a28.526,28.526,0,0,0-4.94-1.577,34.5,34.5,0,0,0-8.09-1.017h-13.02a20.681,20.681,0,0,0-11.59,3.1,11.236,11.236,0,0,0-5.39,9.918q0,6.612,5.39,9.358,4.02,2.036,11.59,2.035h13.02a14.687,14.687,0,0,1,7.76,1.958,5.983,5.983,0,0,1,3.23,5.315,7.933,7.933,0,0,1-3.36,6.968,13,13,0,0,1-7.63,2.035h-13.02a41.873,41.873,0,0,1-10.07-1.373,67.151,67.151,0,0,1-6.91-2.137v5.087a40.4,40.4,0,0,0,8.21,2.441,46.439,46.439,0,0,0,8.77.865h13.02a16.767,16.767,0,0,0,11.12-3.993,12.414,12.414,0,0,0,4.75-9.893Q1053.34,431.093,1048.54,427.456Z"/>
</svg>
