<?xml version="1.0" standalone="no"?>
<!DOCTYPE svg PUBLIC "-//W3C//DTD SVG 20010904//EN"
 "http://www.w3.org/TR/2001/REC-SVG-20010904/DTD/svg10.dtd">
<svg version="1.0" xmlns="http://www.w3.org/2000/svg"
 width="1080.000000pt" height="467.000000pt" viewBox="0 0 1080.000000 467.000000"
 preserveAspectRatio="xMidYMid meet">

<g transform="translate(0.000000,467.000000) scale(0.100000,-0.100000)"
fill="#000000" stroke="none">
<path d="M81 4570 c175 -114 744 -710 1608 -1685 190 -214 367 -412 394 -440
l47 -50 -19 45 c-65 155 -315 721 -377 851 -182 388 -319 596 -512 780 -299
285 -706 478 -1068 507 -89 7 -95 7 -73 -8z"/>
<path d="M5890 4565 c-237 -44 -468 -141 -701 -296 -163 -109 -363 -306 -466
-459 -146 -217 -221 -373 -614 -1280 l-59 -135 48 50 c26 28 173 194 328 370
792 902 1381 1534 1579 1693 39 31 74 60 80 64 14 12 -112 8 -195 -7z"/>
<path d="M5033 2861 c-94 -12 -88 -22 57 -87 58 -26 128 -61 155 -79 50 -32
105 -87 105 -106 0 -27 20 7 29 49 18 87 -20 166 -103 209 -35 18 -159 26
-243 14z"/>
<path d="M7435 2843 c-58 -14 -41 -28 115 -97 123 -55 193 -103 223 -154 l22
-36 13 48 c19 68 9 128 -31 173 -51 58 -95 73 -217 72 -58 -1 -114 -3 -125 -6z"/>
<path d="M10535 2652 c-106 -37 -172 -121 -182 -232 l-6 -59 -66 51 c-130 101
-243 133 -429 125 -210 -9 -337 -62 -473 -197 -98 -96 -144 -178 -180 -315
-25 -95 -30 -286 -10 -380 45 -212 175 -386 355 -474 104 -51 177 -70 301 -78
183 -11 349 41 468 147 l57 52 1 -94 c1 -51 0 -99 -1 -107 -1 -11 11 -13 63
-8 112 10 195 58 228 131 18 39 19 79 19 749 l0 707 -47 0 c-27 -1 -71 -8 -98
-18z m-524 -392 c134 -25 265 -130 309 -247 71 -187 35 -399 -88 -522 -162
-162 -442 -162 -602 -1 -164 163 -170 471 -12 641 103 111 242 157 393 129z"/>
<path d="M8200 1876 l0 -766 160 0 160 0 0 363 c1 258 5 384 14 438 30 166
121 272 266 309 88 23 149 58 194 113 33 40 85 142 101 195 6 21 4 22 -32 18
-21 -3 -66 -8 -101 -11 -153 -14 -309 -77 -399 -159 l-53 -48 0 43 c-1 60 -28
116 -80 163 -44 40 -141 90 -197 101 l-32 6 -1 -765z"/>
<path d="M6205 2525 c-216 -48 -381 -176 -479 -371 -47 -94 -65 -170 -73 -294
-17 -304 122 -551 382 -680 132 -66 215 -83 395 -84 118 0 172 4 225 18 108
28 222 87 290 150 l60 56 -35 29 c-48 41 -126 78 -181 86 -37 5 -59 2 -110
-18 -100 -40 -137 -47 -239 -47 -153 0 -252 34 -340 116 -43 41 -101 128 -90
137 3 2 187 38 410 81 484 94 543 108 586 141 62 47 67 140 18 297 -57 179
-231 324 -454 378 -99 23 -270 26 -365 5z m316 -265 c77 -24 147 -74 194 -138
42 -57 70 -131 52 -137 -7 -2 -178 -36 -382 -75 -203 -39 -380 -73 -392 -75
-22 -5 -23 -2 -23 49 0 143 86 287 210 351 95 50 232 60 341 25z"/>
<path d="M5000 1821 l0 -711 160 0 160 0 0 613 0 613 -25 51 c-39 78 -122 125
-242 139 l-53 7 0 -712z"/>
<path d="M7430 1801 l0 -711 165 0 166 0 -3 618 c-3 610 -3 617 -25 657 -45
84 -129 134 -240 143 l-63 5 0 -712z"/>
<path d="M2269 2095 c312 -723 825 -1901 831 -1908 3 -4 179 401 390 900 211
500 417 984 457 1078 39 93 71 171 69 173 -6 5 -257 -269 -379 -413 -133 -156
-299 -378 -432 -575 -54 -80 -99 -146 -100 -147 -1 -2 -30 39 -65 90 -243 352
-470 630 -748 917 l-131 135 108 -250z"/>
<path d="M7923 843 c-10 -3 -13 -39 -13 -128 l0 -124 -43 25 c-60 33 -122 40
-188 20 -173 -50 -237 -261 -120 -397 73 -87 195 -113 299 -64 l52 24 0 -25
c0 -23 3 -25 43 -22 l42 3 3 339 c2 265 -1 341 -10 348 -14 8 -46 9 -65 1z
m-93 -315 c54 -37 72 -70 72 -126 0 -92 -63 -156 -153 -156 -63 0 -109 29
-137 86 -19 38 -22 56 -17 89 7 43 54 105 89 119 42 17 112 11 146 -12z"/>
<path d="M5120 635 c-98 -31 -170 -130 -170 -234 1 -140 112 -251 250 -251 87
1 180 52 215 120 18 37 9 50 -37 50 -31 0 -46 -6 -67 -29 -79 -85 -227 -47
-261 65 -16 55 0 110 45 154 34 33 40 35 104 35 65 0 70 -2 110 -37 44 -41 89
-50 111 -23 10 12 8 22 -14 55 -30 45 -84 83 -142 99 -50 14 -88 13 -144 -4z"/>
<path d="M6410 641 c-115 -37 -183 -127 -184 -241 -1 -144 105 -250 249 -250
96 0 173 46 220 131 66 122 17 276 -109 341 -43 22 -136 32 -176 19z m151
-115 c92 -63 90 -190 -4 -260 -38 -28 -126 -28 -164 0 -97 72 -98 205 -1 264
48 29 123 27 169 -4z"/>
<path d="M8960 641 c-99 -30 -173 -116 -186 -214 -8 -58 17 -142 56 -189 100
-120 306 -116 394 9 36 52 30 73 -22 73 -30 0 -45 -7 -67 -30 -34 -36 -91 -53
-142 -44 -40 7 -108 63 -116 94 -5 19 0 20 193 20 197 0 198 0 203 23 13 51
-27 160 -75 204 -56 52 -163 76 -238 54z m150 -106 c31 -16 60 -51 60 -72 0
-10 -34 -13 -145 -13 -113 0 -145 3 -145 13 0 14 43 58 75 75 29 16 121 14
155 -3z"/>
<path d="M10158 636 c-59 -22 -89 -45 -104 -81 -31 -74 -7 -145 58 -175 34
-16 66 -20 156 -20 132 0 182 -15 182 -53 0 -13 -10 -32 -21 -43 -19 -17 -37
-19 -148 -18 -91 1 -138 6 -170 18 -55 20 -73 9 -69 -43 3 -33 6 -36 58 -53
83 -26 297 -25 349 2 123 62 127 201 8 259 -35 17 -64 21 -153 22 -142 1 -158
6 -162 47 -3 27 1 34 25 43 29 11 266 7 315 -6 21 -6 27 -3 33 15 12 37 -2 67
-37 80 -50 19 -275 23 -320 6z"/>
</g>
</svg>
